<svg xmlns="http://www.w3.org/2000/svg" viewBox="0 0 120.84 33.07"><defs><style>.cls-1{fill:#f37160;}.cls-2{fill:#007b78;}.cls-3{fill:#00b7ce;}.cls-4{fill:#231f20;}</style></defs><title>Asset 3BharatPe</title><g id="Layer_2" data-name="Layer 2"><g id="Layer_1-2" data-name="Layer 1"><polygon class="cls-1" points="24.05 12.83 9.02 16.86 9.02 13.1 24.05 9.07 24.05 12.83"/><polygon class="cls-2" points="24.05 19.97 9.02 24 9.02 20.24 24.05 16.21 24.05 19.97"/><path class="cls-3" d="M16.53,33.07A16.54,16.54,0,1,1,33.07,16.53,16.56,16.56,0,0,1,16.53,33.07Zm0-29.69A13.16,13.16,0,1,0,29.69,16.53,13.17,13.17,0,0,0,16.53,3.38Z"/><path class="cls-4" d="M47.77,22.35c-1.44,1.23-2.76,1.21-4.58,1.21H38.74v-14h4.32c1.68,0,3.27,0,4.49,1.36a3.35,3.35,0,0,1,.83,2.31A3.15,3.15,0,0,1,46.75,16a3.2,3.2,0,0,1,2.31,3.26A4,4,0,0,1,47.77,22.35Zm-4.22-9.66H42.17v2.18h1.36c.78,0,1.42-.23,1.42-1.12S44.29,12.69,43.55,12.69ZM44,17.86h-1.8v2.56H44c.89,0,1.68-.31,1.68-1.35S44.8,17.86,44,17.86Z"/><path class="cls-4" d="M56.5,23.56V17.84c0-1.13-.32-2.19-1.68-2.19s-1.76.89-1.76,2.08v5.83H49.91v-14h3.15V14h0a2.94,2.94,0,0,1,2.71-1.33,3.82,3.82,0,0,1,2.86,1.16c1,1.15,1,2.4,1,3.84v5.87Z"/><path class="cls-4" d="M68.83,23.56V22.42h0a3.42,3.42,0,0,1-3.07,1.5c-3.23,0-5.28-2.5-5.28-5.62a5.32,5.32,0,0,1,5.28-5.61,3.52,3.52,0,0,1,3.07,1.48h0V13.05H72V23.56Zm-2.65-7.93a2.59,2.59,0,0,0-2.6,2.71,2.63,2.63,0,1,0,5.25,0A2.58,2.58,0,0,0,66.18,15.63Z"/><path class="cls-4" d="M76.44,17.79v5.77H73.3V13.05h3v1.12h0a2.64,2.64,0,0,1,2.63-1.48v3.16C77.54,15.89,76.44,16.16,76.44,17.79Z"/><path class="cls-4" d="M87.46,23.56V22.42h0a3.4,3.4,0,0,1-3.06,1.5c-3.24,0-5.29-2.5-5.29-5.62a5.32,5.32,0,0,1,5.29-5.61,3.52,3.52,0,0,1,3.06,1.48h0V13.05H90.6V23.56Zm-2.65-7.93a2.59,2.59,0,0,0-2.59,2.71,2.62,2.62,0,1,0,5.24,0A2.58,2.58,0,0,0,84.81,15.63Z"/><path class="cls-4" d="M96.28,15.44v8.12H93.14V15.44H91.59V13.05h1.55V9.55h3.14v3.5H97.8v2.39Z"/><path class="cls-3" d="M108.36,18a5.62,5.62,0,0,1-4.09,1.21h-1.55v4.39H99.3v-14h4.58c1.44,0,3.16.06,4.31,1a4.76,4.76,0,0,1,1.65,3.71A5.08,5.08,0,0,1,108.36,18Zm-4.31-5.27h-1.33V16h1.46c1.17,0,2.23-.27,2.23-1.69S105.22,12.69,104.05,12.69Z"/><path class="cls-3" d="M120.77,19.26h-7.88a2.36,2.36,0,0,0,2.46,2,2.26,2.26,0,0,0,1.91-1h3.22a5.63,5.63,0,0,1-5.13,3.63,5.61,5.61,0,1,1,5.49-5.47A4.65,4.65,0,0,1,120.77,19.26Zm-5.46-3.92a2.33,2.33,0,0,0-2.38,1.8h4.77A2.34,2.34,0,0,0,115.31,15.34Z"/></g></g></svg>